<svg width="588" height="175" viewBox="0 0 588 175" fill="none" xmlns="http://www.w3.org/2000/svg">
<path d="M133.796 111.23C132.801 111.23 131.79 111.298 130.77 111.437C121.118 112.753 113.387 120.625 112.245 130.298C110.691 143.467 120.983 154.636 133.79 154.636C134.784 154.636 135.794 154.568 136.814 154.429C146.466 153.115 154.198 145.241 155.339 135.567C156.892 122.398 146.599 111.23 133.796 111.23ZM148.464 134.755C147.694 141.292 142.4 146.682 135.878 147.57C135.182 147.666 134.48 147.713 133.79 147.713C129.581 147.713 125.555 145.899 122.743 142.736C119.899 139.536 118.612 135.408 119.12 131.111C119.891 124.574 125.184 119.185 131.706 118.296C132.402 118.201 133.105 118.153 133.796 118.153C138.003 118.153 142.028 119.967 144.84 123.13C147.684 126.329 148.971 130.458 148.464 134.755Z" fill="white"/>
<path d="M152.588 166.352L136.789 166.354C115.185 165.597 108.327 157.014 102.276 149.44L101.348 148.284C101.007 147.861 100.668 147.414 100.306 146.924L98.9129 144.901C98.4423 144.189 97.9818 143.457 97.5828 142.81L27.0026 0.876088C26.7673 0.402508 26.3127 0.078033 25.788 0.0107999C25.2691 -0.0491292 24.7459 0.142347 24.4024 0.535538C23.8762 1.13773 23.3558 1.74433 22.8442 2.36259C22.1821 3.16504 22.055 4.28905 22.5212 5.22451L73.6585 108.059L13.5978 20.4651C13.2865 20.0076 12.7866 19.7504 12.1947 19.7767C11.6407 19.8103 11.1393 20.1377 10.8865 20.6332C10.4831 21.424 10.0943 22.225 9.7157 23.0289C9.32251 23.8723 9.40583 24.8749 9.93349 25.6467L74.3762 119.622L5.15974 43.9261C4.76071 43.4905 4.16144 43.3093 3.58262 43.47C3.01258 43.625 2.58139 44.081 2.45716 44.6628C2.27884 45.5091 2.0362 46.6828 1.86665 47.5656C1.70879 48.387 1.94557 49.2158 2.51417 49.837L77.0174 131.302L2.57994 69.8119C2.10929 69.4275 1.4457 69.3442 0.894647 69.6117C0.343611 69.8762 -0.00719214 70.4433 0.000111899 71.0572C0.0176536 72.1549 0.0541878 73.2526 0.102427 74.3489C0.134577 75.0972 0.483916 75.8017 1.06126 76.2782L78.8868 140.572L5.62746 95.5749C5.08519 95.2431 4.39967 95.2694 3.88517 95.6407C3.3692 96.0105 3.12512 96.6478 3.26397 97.2661C3.52415 98.4281 3.80624 99.5901 4.10441 100.743C4.27543 101.41 4.69492 101.978 5.28542 102.339L83.605 150.445L14.2497 121.635C13.649 121.386 12.9679 121.531 12.5162 121.997C12.0631 122.465 11.9432 123.15 12.2122 123.748C12.7369 124.9 13.2704 126.043 13.8273 127.182C14.1138 127.762 14.5991 128.218 15.1925 128.462L87.0925 158.319L27.4929 145.681C26.8527 145.524 26.1979 145.779 25.8251 146.321C25.4524 146.862 25.4495 147.562 25.8207 148.108C26.5618 149.187 27.3262 150.258 28.1068 151.318C28.4766 151.815 29.013 152.17 29.6196 152.318L94.9971 166.352H45.8214C45.1695 166.352 44.5936 166.746 44.3539 167.352C44.1142 167.96 44.2676 168.64 44.7427 169.086C45.6831 169.963 46.6308 170.816 47.5918 171.652C48.0732 172.071 48.6926 172.298 49.3308 172.298H152.588C153.164 172.298 153.636 171.827 153.636 171.251V167.4C153.636 166.824 153.164 166.352 152.588 166.352Z" fill="white"/>
<path d="M223.919 96.3083H236.98C250.74 96.3083 259.18 100.463 267.084 111.126L267.37 111.512L270.699 109.769L262.547 89.9374H197V93.9428L197.527 93.975C206.603 94.5412 208.313 94.9215 208.313 103.56V159.073C208.313 167.378 206.821 168.076 197.527 168.658L197 168.69V172.696H232.294V168.69L231.768 168.658C222.474 168.076 220.981 167.378 220.981 159.073V132.694H239.313C247.347 132.694 249.015 136.026 249.715 143.497L249.763 144.006H253.869V115.01H249.763L249.715 115.519C249.015 122.99 247.347 126.323 239.313 126.323H220.981V99.2458C220.981 97.3514 222.025 96.3083 223.919 96.3083Z" fill="white"/>
<path d="M315.345 167.374C313.869 167.374 312.175 166.722 312.175 161.638V134.232C312.175 122.948 305.865 117.227 293.421 117.227C278.615 117.227 269.767 124.272 269.767 131.084C269.767 134.83 271.582 136.893 274.877 136.893C277.961 136.893 280.225 134.757 281.254 130.867C282.586 125.427 286.376 122.782 292.837 122.782C298.768 122.782 300.672 125.507 300.672 133.999V140.519C282.956 143.441 265.803 147.503 265.803 161.171C265.803 169.459 271.746 174.212 282.108 174.212C287.846 174.212 294.066 171.89 301.098 167.121C302.237 171.552 305.569 173.979 310.563 173.979C314.259 173.979 317.249 173.133 319.971 171.319L320.221 171.153V165.716L319.395 166.157C317.861 166.976 316.536 167.374 315.345 167.374ZM300.672 146.08V161.344C294.95 165.298 290.23 167.141 285.84 167.141C282.957 167.141 278.122 166.185 278.122 159.773C278.122 151.302 287.109 148.135 300.672 146.08Z" fill="white"/>
<path d="M342.724 101.715H338.075L337.993 102.181C336.106 113.005 332.153 118.378 323.897 121.342L323.525 121.475V124.881H331.338V159.772C331.338 169.333 335.985 173.979 345.544 173.979C349.254 173.979 353.515 173.088 356.398 171.707L356.718 171.555V165.838L355.956 166.127C353.516 167.058 351.283 167.491 348.927 167.491C344.521 167.491 342.724 165.289 342.724 159.89V124.881H356.718V118.976H342.724V101.715Z" fill="white"/>
<path d="M417.359 163.154V133.532C417.359 118.815 405.385 117.226 400.237 117.226C394.164 117.226 387.375 119.928 382.723 122.629V88.1876H378.385L363.407 97.5341V100.741H368.283C370.566 100.741 371.337 101.57 371.337 104.027V163.154C371.337 166.837 370.313 168.077 363.918 168.659L363.407 168.705V172.695H390.537V168.706L390.027 168.659C383.731 168.076 382.723 166.835 382.723 163.154V129.047C387.302 125.939 392.344 124.298 397.322 124.298C402.985 124.298 405.856 127.405 405.856 133.532V163.154C405.856 166.904 404.898 168.081 398.553 168.659L398.043 168.705V172.695H425.173V168.706L424.663 168.659C418.366 168.076 417.359 166.835 417.359 163.154Z" fill="white"/>
<path d="M457.957 117.227C441.752 117.227 429.99 129.234 429.99 145.779C429.99 162.39 441.752 174.446 457.957 174.446C474.231 174.446 486.042 162.39 486.042 145.779C486.042 129.234 474.231 117.227 457.957 117.227ZM457.957 168.774C445.024 168.774 442.309 156.269 442.309 145.778C442.309 135.341 445.024 122.899 457.957 122.899C470.988 122.899 473.722 135.341 473.722 145.778C473.722 156.269 470.988 168.774 457.957 168.774Z" fill="white"/>
<path d="M586.989 168.66C580.592 168.078 579.569 166.837 579.569 163.155V133.533C579.569 118.816 567.595 117.227 562.447 117.227C555.683 117.227 547.598 120.665 542.681 123.983C539.011 118.119 531.907 117.227 527.927 117.227C521.854 117.227 515.065 119.929 510.413 122.629V117.227H506.075L491.097 126.573V129.78H495.973C498.255 129.78 499.026 130.61 499.026 133.066V163.155C499.026 166.837 498.003 168.078 491.607 168.66L491.097 168.705V172.696H518.226V168.707L517.716 168.66C511.42 168.076 510.413 166.836 510.413 163.155V129.047C514.992 125.94 520.034 124.299 525.011 124.299C530.674 124.299 533.546 127.406 533.546 133.532V163.155C533.546 166.904 532.588 168.082 526.243 168.66L525.733 168.705V172.696H552.863V168.707L552.353 168.66C546.056 168.076 545.049 166.836 545.049 163.155V133.532C545.049 132.116 544.883 130.706 544.542 129.232C549.446 125.958 554.527 124.299 559.649 124.299C565.312 124.299 568.183 127.406 568.183 133.532V163.155C568.183 166.836 567.176 168.076 560.88 168.66L560.37 168.707V172.696H587.499V168.705L586.989 168.66Z" fill="white"/>
</svg>
